<mxfile host="app.diagrams.net" modified="2021-03-31T23:48:35.572Z" agent="5.0 (Macintosh; Intel Mac OS X 10_13_6) AppleWebKit/537.36 (KHTML, like Gecko) Chrome/89.0.4389.90 Safari/537.36" etag="IUYWhaYuaX547HfnGPiG" version="14.5.3" type="github">
  <diagram id="KmPHyXRd9AAnZFTOhBj1" name="Page-1">
    <mxGraphModel dx="1366" dy="1601" grid="0" gridSize="10" guides="0" tooltips="1" connect="1" arrows="1" fold="1" page="1" pageScale="1" pageWidth="690" pageHeight="980" math="0" shadow="0">
      <root>
        <mxCell id="0" />
        <mxCell id="1" parent="0" />
        <mxCell id="iAa0ijknWMUfrmJ30W93-124" style="edgeStyle=orthogonalEdgeStyle;rounded=0;orthogonalLoop=1;jettySize=auto;html=1;endArrow=classic;endFill=1;fillColor=#00FFFF;gradientColor=#9933FF;fontColor=#000099;" parent="1" source="_AxOFC-AINdAkmEs332U-23" edge="1">
          <mxGeometry relative="1" as="geometry">
            <Array as="points">
              <mxPoint x="418" y="635" />
            </Array>
            <mxPoint x="418" y="851" as="targetPoint" />
          </mxGeometry>
        </mxCell>
        <mxCell id="cBUCQeLag9bt-TqTQDcO-5" value="" style="rounded=0;whiteSpace=wrap;html=1;strokeColor=#3A5431;fontColor=#ffffff;fillColor=#6d8764;" parent="1" vertex="1">
          <mxGeometry x="446" y="9" width="566" height="787" as="geometry" />
        </mxCell>
        <mxCell id="cBUCQeLag9bt-TqTQDcO-6" value="secondTurn()" style="text;html=1;resizable=0;autosize=1;align=center;verticalAlign=middle;points=[];fillColor=#647687;strokeColor=#314354;rounded=0;fontColor=#ffffff;fontSize=30;" parent="1" vertex="1">
          <mxGeometry x="661" y="69" width="188" height="39" as="geometry" />
        </mxCell>
        <mxCell id="cBUCQeLag9bt-TqTQDcO-2" value="" style="rounded=0;whiteSpace=wrap;html=1;strokeColor=#B09500;fontColor=#ffffff;fillColor=#E3DA56;" parent="1" vertex="1">
          <mxGeometry x="-91" y="7" width="455" height="250" as="geometry" />
        </mxCell>
        <mxCell id="_AxOFC-AINdAkmEs332U-23" value="" style="whiteSpace=wrap;html=1;aspect=fixed;strokeColor=#B09500;fontColor=#ffffff;fillColor=#FFD966;glass=0;" parent="1" vertex="1">
          <mxGeometry x="460" y="243" width="537" height="537" as="geometry" />
        </mxCell>
        <mxCell id="SoHk7hT5f_enM3RVXxlu-15" value="invalid&lt;br&gt;restoreLetters()" style="ellipse;whiteSpace=wrap;html=1;fillColor=#dae8fc;strokeColor=#6c8ebf;" parent="1" vertex="1">
          <mxGeometry x="366" y="-79" width="120" height="105" as="geometry" />
        </mxCell>
        <mxCell id="j5gP4k0hpm-259DDC6v4-30" style="edgeStyle=orthogonalEdgeStyle;rounded=0;orthogonalLoop=1;jettySize=auto;html=1;" parent="1" source="SoHk7hT5f_enM3RVXxlu-22" edge="1">
          <mxGeometry relative="1" as="geometry">
            <mxPoint x="814.25" y="3.76171875" as="targetPoint" />
          </mxGeometry>
        </mxCell>
        <mxCell id="j5gP4k0hpm-259DDC6v4-33" value="no" style="edgeLabel;html=1;align=center;verticalAlign=middle;resizable=0;points=[];" parent="j5gP4k0hpm-259DDC6v4-30" vertex="1" connectable="0">
          <mxGeometry x="-0.8264" y="1" relative="1" as="geometry">
            <mxPoint as="offset" />
          </mxGeometry>
        </mxCell>
        <mxCell id="j5gP4k0hpm-259DDC6v4-31" style="edgeStyle=orthogonalEdgeStyle;rounded=0;orthogonalLoop=1;jettySize=auto;html=1;" parent="1" source="SoHk7hT5f_enM3RVXxlu-22" edge="1">
          <mxGeometry relative="1" as="geometry">
            <mxPoint x="324" y="4" as="targetPoint" />
            <Array as="points">
              <mxPoint x="660" y="-102" />
              <mxPoint x="324" y="-102" />
            </Array>
          </mxGeometry>
        </mxCell>
        <mxCell id="j5gP4k0hpm-259DDC6v4-32" value="yes" style="edgeLabel;html=1;align=center;verticalAlign=middle;resizable=0;points=[];" parent="j5gP4k0hpm-259DDC6v4-31" vertex="1" connectable="0">
          <mxGeometry x="-0.858" relative="1" as="geometry">
            <mxPoint as="offset" />
          </mxGeometry>
        </mxCell>
        <mxCell id="SoHk7hT5f_enM3RVXxlu-22" value="first turn&lt;br&gt;of game?" style="rhombus;whiteSpace=wrap;html=1;fillColor=#fff2cc;strokeColor=#d6b656;" parent="1" vertex="1">
          <mxGeometry x="608" y="-271" width="103" height="50" as="geometry" />
        </mxCell>
        <mxCell id="j5gP4k0hpm-259DDC6v4-18" style="edgeStyle=orthogonalEdgeStyle;rounded=0;orthogonalLoop=1;jettySize=auto;html=1;entryX=0.5;entryY=0;entryDx=0;entryDy=0;" parent="1" source="SoHk7hT5f_enM3RVXxlu-11" target="iAa0ijknWMUfrmJ30W93-70" edge="1">
          <mxGeometry relative="1" as="geometry" />
        </mxCell>
        <mxCell id="j5gP4k0hpm-259DDC6v4-19" value="yes" style="edgeLabel;html=1;align=center;verticalAlign=middle;resizable=0;points=[];" parent="j5gP4k0hpm-259DDC6v4-18" vertex="1" connectable="0">
          <mxGeometry x="-0.4068" y="1" relative="1" as="geometry">
            <mxPoint as="offset" />
          </mxGeometry>
        </mxCell>
        <mxCell id="ICgtY_3QxGC1QZAp6QRd-5" style="edgeStyle=orthogonalEdgeStyle;rounded=0;orthogonalLoop=1;jettySize=auto;html=1;" parent="1" source="SoHk7hT5f_enM3RVXxlu-11" edge="1">
          <mxGeometry relative="1" as="geometry">
            <mxPoint x="426" y="27" as="targetPoint" />
            <Array as="points">
              <mxPoint x="426" y="74" />
            </Array>
          </mxGeometry>
        </mxCell>
        <mxCell id="ICgtY_3QxGC1QZAp6QRd-7" value="no" style="edgeLabel;html=1;align=center;verticalAlign=middle;resizable=0;points=[];" parent="ICgtY_3QxGC1QZAp6QRd-5" vertex="1" connectable="0">
          <mxGeometry x="-0.493" y="-1" relative="1" as="geometry">
            <mxPoint as="offset" />
          </mxGeometry>
        </mxCell>
        <mxCell id="SoHk7hT5f_enM3RVXxlu-11" value="is center &lt;br&gt;tile used?" style="rhombus;whiteSpace=wrap;html=1;fillColor=#fff2cc;strokeColor=#d6b656;" parent="1" vertex="1">
          <mxGeometry x="218" y="21" width="76" height="105" as="geometry" />
        </mxCell>
        <mxCell id="ICgtY_3QxGC1QZAp6QRd-18" style="edgeStyle=orthogonalEdgeStyle;rounded=0;orthogonalLoop=1;jettySize=auto;html=1;entryX=0.5;entryY=0;entryDx=0;entryDy=0;" parent="1" source="SoHk7hT5f_enM3RVXxlu-38" target="ICgtY_3QxGC1QZAp6QRd-16" edge="1">
          <mxGeometry relative="1" as="geometry" />
        </mxCell>
        <mxCell id="SoHk7hT5f_enM3RVXxlu-38" value="are &amp;gt; 0 new letters&lt;br&gt;adjacent to &lt;br&gt;old letters?" style="rhombus;whiteSpace=wrap;html=1;fillColor=#f8cecc;strokeColor=#b85450;" parent="1" vertex="1">
          <mxGeometry x="515" y="30" width="115" height="80" as="geometry" />
        </mxCell>
        <mxCell id="_AxOFC-AINdAkmEs332U-11" value="iterate through&amp;nbsp;&lt;br&gt;provisional tiles" style="rounded=1;whiteSpace=wrap;html=1;fillColor=#f8cecc;" parent="1" vertex="1">
          <mxGeometry x="473" y="249" width="170" height="51" as="geometry" />
        </mxCell>
        <mxCell id="ICgtY_3QxGC1QZAp6QRd-20" style="edgeStyle=orthogonalEdgeStyle;rounded=0;orthogonalLoop=1;jettySize=auto;html=1;" parent="1" source="_AxOFC-AINdAkmEs332U-12" target="iAa0ijknWMUfrmJ30W93-44" edge="1">
          <mxGeometry relative="1" as="geometry">
            <Array as="points">
              <mxPoint x="436" y="968" />
              <mxPoint x="227" y="968" />
            </Array>
          </mxGeometry>
        </mxCell>
        <mxCell id="_AxOFC-AINdAkmEs332U-12" value="iterate through&amp;nbsp;&lt;br&gt;wordArray&amp;nbsp;&lt;br&gt;broadcast new score notification" style="rounded=1;whiteSpace=wrap;html=1;fillColor=#d5e8d4;strokeColor=#82b366;" parent="1" vertex="1">
          <mxGeometry x="376" y="860" width="120" height="90" as="geometry" />
        </mxCell>
        <mxCell id="_AxOFC-AINdAkmEs332U-16" value="&lt;span style=&quot;background-color: rgb(255 , 217 , 102)&quot;&gt;yes&lt;/span&gt;" style="edgeStyle=orthogonalEdgeStyle;rounded=0;orthogonalLoop=1;jettySize=auto;html=1;startArrow=none;startFill=0;endArrow=classic;endFill=1;" parent="1" source="_AxOFC-AINdAkmEs332U-14" edge="1">
          <mxGeometry relative="1" as="geometry">
            <mxPoint x="662" y="582" as="targetPoint" />
          </mxGeometry>
        </mxCell>
        <mxCell id="_AxOFC-AINdAkmEs332U-19" style="edgeStyle=orthogonalEdgeStyle;rounded=0;orthogonalLoop=1;jettySize=auto;html=1;exitX=0.5;exitY=1;exitDx=0;exitDy=0;startArrow=none;startFill=0;endArrow=classic;endFill=1;entryX=0;entryY=0.5;entryDx=0;entryDy=0;" parent="1" source="_AxOFC-AINdAkmEs332U-14" edge="1">
          <mxGeometry relative="1" as="geometry">
            <mxPoint x="632" y="738" as="targetPoint" />
            <Array as="points">
              <mxPoint x="547" y="738" />
            </Array>
          </mxGeometry>
        </mxCell>
        <mxCell id="_AxOFC-AINdAkmEs332U-20" value="no" style="edgeLabel;html=1;align=center;verticalAlign=middle;resizable=0;points=[];labelBackgroundColor=#FFD966;" parent="_AxOFC-AINdAkmEs332U-19" vertex="1" connectable="0">
          <mxGeometry x="-0.8431" y="1" relative="1" as="geometry">
            <mxPoint y="21" as="offset" />
          </mxGeometry>
        </mxCell>
        <mxCell id="_AxOFC-AINdAkmEs332U-14" value="is there more than one provisional tile in this word?" style="rhombus;whiteSpace=wrap;html=1;fillColor=#fad9d5;strokeColor=#ae4132;" parent="1" vertex="1">
          <mxGeometry x="492" y="528" width="110" height="107" as="geometry" />
        </mxCell>
        <mxCell id="iAa0ijknWMUfrmJ30W93-24" style="edgeStyle=orthogonalEdgeStyle;rounded=0;orthogonalLoop=1;jettySize=auto;html=1;" parent="1" source="_AxOFC-AINdAkmEs332U-15" edge="1">
          <mxGeometry relative="1" as="geometry">
            <mxPoint x="862" y="578" as="targetPoint" />
            <Array as="points">
              <mxPoint x="812" y="578" />
              <mxPoint x="812" y="578" />
            </Array>
          </mxGeometry>
        </mxCell>
        <mxCell id="iAa0ijknWMUfrmJ30W93-25" value="&lt;span style=&quot;background-color: rgb(255 , 217 , 102)&quot;&gt;no&lt;/span&gt;" style="edgeLabel;html=1;align=center;verticalAlign=middle;resizable=0;points=[];" parent="iAa0ijknWMUfrmJ30W93-24" vertex="1" connectable="0">
          <mxGeometry x="-0.5838" y="2" relative="1" as="geometry">
            <mxPoint y="1" as="offset" />
          </mxGeometry>
        </mxCell>
        <mxCell id="iAa0ijknWMUfrmJ30W93-82" style="edgeStyle=orthogonalEdgeStyle;rounded=0;orthogonalLoop=1;jettySize=auto;html=1;entryX=0.464;entryY=0.013;entryDx=0;entryDy=0;entryPerimeter=0;endArrow=classic;endFill=1;fillColor=#00FFFF;gradientColor=#9933FF;" parent="1" source="_AxOFC-AINdAkmEs332U-15" target="iAa0ijknWMUfrmJ30W93-81" edge="1">
          <mxGeometry relative="1" as="geometry" />
        </mxCell>
        <mxCell id="iAa0ijknWMUfrmJ30W93-83" value="&lt;span style=&quot;&quot;&gt;yes&lt;/span&gt;" style="edgeLabel;html=1;align=center;verticalAlign=middle;resizable=0;points=[];labelBackgroundColor=none;" parent="iAa0ijknWMUfrmJ30W93-82" vertex="1" connectable="0">
          <mxGeometry x="-0.1529" y="-2" relative="1" as="geometry">
            <mxPoint y="-1" as="offset" />
          </mxGeometry>
        </mxCell>
        <mxCell id="_AxOFC-AINdAkmEs332U-15" value="is this the first provisional tile?" style="rhombus;whiteSpace=wrap;html=1;fillColor=#fad9d5;strokeColor=#ae4132;" parent="1" vertex="1">
          <mxGeometry x="662" y="534" width="110" height="95" as="geometry" />
        </mxCell>
        <mxCell id="iAa0ijknWMUfrmJ30W93-33" style="edgeStyle=orthogonalEdgeStyle;rounded=0;orthogonalLoop=1;jettySize=auto;html=1;endArrow=classic;endFill=1;" parent="1" target="iAa0ijknWMUfrmJ30W93-26" edge="1">
          <mxGeometry relative="1" as="geometry">
            <mxPoint x="752" y="738" as="sourcePoint" />
          </mxGeometry>
        </mxCell>
        <mxCell id="iAa0ijknWMUfrmJ30W93-11" value="&lt;span style=&quot;background-color: rgb(255 , 217 , 102)&quot;&gt;yes&lt;/span&gt;" style="edgeStyle=orthogonalEdgeStyle;rounded=0;orthogonalLoop=1;jettySize=auto;html=1;entryX=0.5;entryY=0;entryDx=0;entryDy=0;" parent="1" edge="1">
          <mxGeometry x="-0.2121" y="12" relative="1" as="geometry">
            <mxPoint x="520" y="395.99818181818193" as="sourcePoint" />
            <mxPoint x="547" y="534" as="targetPoint" />
            <Array as="points">
              <mxPoint x="547" y="396" />
            </Array>
            <mxPoint as="offset" />
          </mxGeometry>
        </mxCell>
        <mxCell id="iAa0ijknWMUfrmJ30W93-13" style="edgeStyle=orthogonalEdgeStyle;rounded=0;orthogonalLoop=1;jettySize=auto;html=1;entryX=0;entryY=0.5;entryDx=0;entryDy=0;" parent="1" source="iAa0ijknWMUfrmJ30W93-10" target="iAa0ijknWMUfrmJ30W93-12" edge="1">
          <mxGeometry relative="1" as="geometry" />
        </mxCell>
        <mxCell id="iAa0ijknWMUfrmJ30W93-14" value="&lt;span style=&quot;&quot;&gt;no&lt;/span&gt;" style="edgeLabel;html=1;align=center;verticalAlign=middle;resizable=0;points=[];labelBackgroundColor=none;" parent="iAa0ijknWMUfrmJ30W93-13" vertex="1" connectable="0">
          <mxGeometry x="-0.4667" y="1" relative="1" as="geometry">
            <mxPoint as="offset" />
          </mxGeometry>
        </mxCell>
        <mxCell id="iAa0ijknWMUfrmJ30W93-10" value="are there horizontally adjacent tiles?" style="rhombus;whiteSpace=wrap;html=1;fillColor=#fad9d5;strokeColor=#ae4132;" parent="1" vertex="1">
          <mxGeometry x="492" y="348" width="110" height="80" as="geometry" />
        </mxCell>
        <mxCell id="iAa0ijknWMUfrmJ30W93-21" style="edgeStyle=orthogonalEdgeStyle;rounded=0;orthogonalLoop=1;jettySize=auto;html=1;" parent="1" source="iAa0ijknWMUfrmJ30W93-12" edge="1">
          <mxGeometry relative="1" as="geometry">
            <mxPoint x="572" y="548" as="targetPoint" />
            <Array as="points">
              <mxPoint x="692" y="528" />
              <mxPoint x="572" y="528" />
            </Array>
          </mxGeometry>
        </mxCell>
        <mxCell id="iAa0ijknWMUfrmJ30W93-22" value="&lt;span style=&quot;background-color: rgb(255 , 217 , 102)&quot;&gt;yes&lt;/span&gt;" style="edgeLabel;html=1;align=center;verticalAlign=middle;resizable=0;points=[];" parent="iAa0ijknWMUfrmJ30W93-21" vertex="1" connectable="0">
          <mxGeometry x="-0.6219" relative="1" as="geometry">
            <mxPoint y="-23" as="offset" />
          </mxGeometry>
        </mxCell>
        <mxCell id="iAa0ijknWMUfrmJ30W93-12" value="are there vertically adjacent tiles?" style="rhombus;whiteSpace=wrap;html=1;fillColor=#fad9d5;strokeColor=#ae4132;" parent="1" vertex="1">
          <mxGeometry x="662" y="348" width="110" height="80" as="geometry" />
        </mxCell>
        <mxCell id="iAa0ijknWMUfrmJ30W93-30" style="edgeStyle=orthogonalEdgeStyle;rounded=0;orthogonalLoop=1;jettySize=auto;html=1;endArrow=classic;endFill=1;entryX=1;entryY=0.5;entryDx=0;entryDy=0;" parent="1" source="iAa0ijknWMUfrmJ30W93-26" target="iAa0ijknWMUfrmJ30W93-12" edge="1">
          <mxGeometry relative="1" as="geometry">
            <mxPoint x="762" y="378" as="targetPoint" />
            <Array as="points">
              <mxPoint x="867" y="388" />
            </Array>
          </mxGeometry>
        </mxCell>
        <mxCell id="iAa0ijknWMUfrmJ30W93-32" value="&lt;span style=&quot;&quot;&gt;no&lt;/span&gt;" style="edgeLabel;html=1;align=center;verticalAlign=middle;resizable=0;points=[];labelBackgroundColor=none;" parent="iAa0ijknWMUfrmJ30W93-30" vertex="1" connectable="0">
          <mxGeometry x="-0.9302" relative="1" as="geometry">
            <mxPoint y="-16" as="offset" />
          </mxGeometry>
        </mxCell>
        <mxCell id="iAa0ijknWMUfrmJ30W93-39" style="edgeStyle=orthogonalEdgeStyle;rounded=0;orthogonalLoop=1;jettySize=auto;html=1;endArrow=classic;endFill=1;fillColor=#00FFFF;gradientColor=#9933FF;" parent="1" source="iAa0ijknWMUfrmJ30W93-26" edge="1">
          <mxGeometry relative="1" as="geometry">
            <mxPoint x="962" y="658" as="targetPoint" />
            <Array as="points">
              <mxPoint x="962" y="487" />
            </Array>
          </mxGeometry>
        </mxCell>
        <mxCell id="iAa0ijknWMUfrmJ30W93-42" value="&lt;span style=&quot;background-color: rgb(255 , 217 , 102)&quot;&gt;yes&lt;/span&gt;" style="edgeLabel;html=1;align=center;verticalAlign=middle;resizable=0;points=[];" parent="iAa0ijknWMUfrmJ30W93-39" vertex="1" connectable="0">
          <mxGeometry x="-0.4828" y="-1" relative="1" as="geometry">
            <mxPoint as="offset" />
          </mxGeometry>
        </mxCell>
        <mxCell id="iAa0ijknWMUfrmJ30W93-26" value="have vertical&lt;br&gt;words been&amp;nbsp;&lt;br&gt;checked?" style="rhombus;whiteSpace=wrap;html=1;fillColor=#fad9d5;strokeColor=#ae4132;" parent="1" vertex="1">
          <mxGeometry x="812" y="439" width="110" height="95" as="geometry" />
        </mxCell>
        <mxCell id="iAa0ijknWMUfrmJ30W93-41" value="&lt;font color=&quot;#ccccff&quot;&gt;next &lt;br&gt;provisional &lt;br&gt;tile&lt;/font&gt;" style="ellipse;whiteSpace=wrap;html=1;fontColor=#ffffff;strokeColor=#000099;fillColor=#004C99;" parent="1" vertex="1">
          <mxGeometry x="892" y="658" width="90" height="50" as="geometry" />
        </mxCell>
        <mxCell id="iAa0ijknWMUfrmJ30W93-45" value="yes" style="edgeStyle=orthogonalEdgeStyle;rounded=0;orthogonalLoop=1;jettySize=auto;html=1;endArrow=classic;endFill=1;fillColor=#00FFFF;gradientColor=#9933FF;" parent="1" edge="1">
          <mxGeometry relative="1" as="geometry">
            <mxPoint x="362" y="1048" as="targetPoint" />
            <mxPoint x="222" y="1048" as="sourcePoint" />
            <Array as="points">
              <mxPoint x="272" y="1048" />
              <mxPoint x="272" y="1048" />
            </Array>
          </mxGeometry>
        </mxCell>
        <mxCell id="iAa0ijknWMUfrmJ30W93-46" value="no" style="edgeStyle=orthogonalEdgeStyle;rounded=0;orthogonalLoop=1;jettySize=auto;html=1;endArrow=classic;endFill=1;fillColor=#00FFFF;gradientColor=#9933FF;entryX=0.5;entryY=0;entryDx=0;entryDy=0;" parent="1" source="iAa0ijknWMUfrmJ30W93-44" target="iAa0ijknWMUfrmJ30W93-58" edge="1">
          <mxGeometry relative="1" as="geometry">
            <mxPoint x="226" y="1175" as="targetPoint" />
            <Array as="points">
              <mxPoint x="222" y="1174" />
              <mxPoint x="222" y="1174" />
            </Array>
          </mxGeometry>
        </mxCell>
        <mxCell id="iAa0ijknWMUfrmJ30W93-44" value="does &lt;br&gt;any player challenge any word?" style="rhombus;whiteSpace=wrap;html=1;fillColor=#d5e8d4;strokeColor=#82b366;" parent="1" vertex="1">
          <mxGeometry x="172" y="1000" width="110" height="95" as="geometry" />
        </mxCell>
        <mxCell id="iAa0ijknWMUfrmJ30W93-61" style="edgeStyle=orthogonalEdgeStyle;rounded=0;orthogonalLoop=1;jettySize=auto;html=1;exitX=0.5;exitY=1;exitDx=0;exitDy=0;endArrow=classic;endFill=1;fillColor=#00FFFF;gradientColor=#9933FF;" parent="1" source="iAa0ijknWMUfrmJ30W93-49" edge="1">
          <mxGeometry relative="1" as="geometry">
            <mxPoint x="427" y="1245" as="targetPoint" />
          </mxGeometry>
        </mxCell>
        <mxCell id="iAa0ijknWMUfrmJ30W93-49" value="&lt;font color=&quot;#ffff99&quot;&gt;challenged player added_score: 0&lt;/font&gt;" style="ellipse;whiteSpace=wrap;html=1;glass=0;strokeColor=#000099;fillColor=#004C99;" parent="1" vertex="1">
          <mxGeometry x="367" y="1155" width="120" height="40" as="geometry" />
        </mxCell>
        <mxCell id="iAa0ijknWMUfrmJ30W93-52" style="edgeStyle=orthogonalEdgeStyle;rounded=0;orthogonalLoop=1;jettySize=auto;html=1;endArrow=classic;endFill=1;fillColor=#00FFFF;gradientColor=#9933FF;" parent="1" source="iAa0ijknWMUfrmJ30W93-50" edge="1">
          <mxGeometry relative="1" as="geometry">
            <mxPoint x="427" y="1145" as="targetPoint" />
          </mxGeometry>
        </mxCell>
        <mxCell id="iAa0ijknWMUfrmJ30W93-57" value="no" style="edgeLabel;html=1;align=center;verticalAlign=middle;resizable=0;points=[];" parent="iAa0ijknWMUfrmJ30W93-52" vertex="1" connectable="0">
          <mxGeometry x="-0.1625" relative="1" as="geometry">
            <mxPoint as="offset" />
          </mxGeometry>
        </mxCell>
        <mxCell id="iAa0ijknWMUfrmJ30W93-55" style="edgeStyle=orthogonalEdgeStyle;rounded=0;orthogonalLoop=1;jettySize=auto;html=1;exitX=1;exitY=0.5;exitDx=0;exitDy=0;entryX=0;entryY=0.5;entryDx=0;entryDy=0;endArrow=classic;endFill=1;fillColor=#00FFFF;gradientColor=#9933FF;" parent="1" source="iAa0ijknWMUfrmJ30W93-50" target="iAa0ijknWMUfrmJ30W93-53" edge="1">
          <mxGeometry relative="1" as="geometry" />
        </mxCell>
        <mxCell id="iAa0ijknWMUfrmJ30W93-56" value="yes" style="edgeLabel;html=1;align=center;verticalAlign=middle;resizable=0;points=[];" parent="iAa0ijknWMUfrmJ30W93-55" vertex="1" connectable="0">
          <mxGeometry x="-0.219" y="-2" relative="1" as="geometry">
            <mxPoint y="-2" as="offset" />
          </mxGeometry>
        </mxCell>
        <mxCell id="iAa0ijknWMUfrmJ30W93-50" value="is word validated&amp;nbsp;&lt;br&gt;by dictionary?" style="rhombus;whiteSpace=wrap;html=1;fillColor=#d5e8d4;strokeColor=#82b366;" parent="1" vertex="1">
          <mxGeometry x="372" y="1000" width="110" height="85" as="geometry" />
        </mxCell>
        <mxCell id="iAa0ijknWMUfrmJ30W93-60" style="edgeStyle=orthogonalEdgeStyle;rounded=0;orthogonalLoop=1;jettySize=auto;html=1;exitX=0.5;exitY=1;exitDx=0;exitDy=0;entryX=1;entryY=0.5;entryDx=0;entryDy=0;endArrow=classic;endFill=1;fillColor=#00FFFF;gradientColor=#9933FF;" parent="1" source="iAa0ijknWMUfrmJ30W93-53" target="iAa0ijknWMUfrmJ30W93-58" edge="1">
          <mxGeometry relative="1" as="geometry" />
        </mxCell>
        <mxCell id="iAa0ijknWMUfrmJ30W93-53" value="&lt;font color=&quot;#ffff99&quot;&gt;challenging player {skip: true}&lt;/font&gt;" style="ellipse;whiteSpace=wrap;html=1;glass=0;strokeColor=#000099;fillColor=#004C99;" parent="1" vertex="1">
          <mxGeometry x="552" y="1022.5" width="120" height="40" as="geometry" />
        </mxCell>
        <mxCell id="iAa0ijknWMUfrmJ30W93-58" value="add points&lt;br&gt;next player" style="ellipse;whiteSpace=wrap;html=1;glass=0;strokeColor=#2D7600;fillColor=#60a917;fontColor=#ffffff;" parent="1" vertex="1">
          <mxGeometry x="162" y="1205" width="120" height="80" as="geometry" />
        </mxCell>
        <mxCell id="iAa0ijknWMUfrmJ30W93-63" style="edgeStyle=orthogonalEdgeStyle;rounded=0;orthogonalLoop=1;jettySize=auto;html=1;endArrow=classic;endFill=1;fillColor=#00FFFF;gradientColor=#9933FF;" parent="1" edge="1">
          <mxGeometry relative="1" as="geometry">
            <mxPoint x="365" y="-41" as="targetPoint" />
            <mxPoint x="339" y="-208.999090909091" as="sourcePoint" />
            <Array as="points">
              <mxPoint x="339" y="-41.09" />
            </Array>
          </mxGeometry>
        </mxCell>
        <mxCell id="j5gP4k0hpm-259DDC6v4-14" value="no" style="edgeLabel;html=1;align=center;verticalAlign=middle;resizable=0;points=[];" parent="iAa0ijknWMUfrmJ30W93-63" vertex="1" connectable="0">
          <mxGeometry x="-0.8897" y="-1" relative="1" as="geometry">
            <mxPoint x="15" y="-60.09" as="offset" />
          </mxGeometry>
        </mxCell>
        <mxCell id="j5gP4k0hpm-259DDC6v4-7" value="no" style="edgeLabel;html=1;align=center;verticalAlign=middle;resizable=0;points=[];labelBackgroundColor=#FFFFFF;" parent="iAa0ijknWMUfrmJ30W93-63" vertex="1" connectable="0">
          <mxGeometry x="-0.3736" y="1" relative="1" as="geometry">
            <mxPoint x="12" y="-40.269999999999996" as="offset" />
          </mxGeometry>
        </mxCell>
        <mxCell id="iAa0ijknWMUfrmJ30W93-62" value="validateLetters()" style="rounded=1;whiteSpace=wrap;html=1;fillColor=#e1d5e7;strokeColor=#9673a6;" parent="1" vertex="1">
          <mxGeometry x="-72" y="-262" width="100" height="30" as="geometry" />
        </mxCell>
        <mxCell id="iAa0ijknWMUfrmJ30W93-122" style="edgeStyle=orthogonalEdgeStyle;rounded=0;orthogonalLoop=1;jettySize=auto;html=1;endArrow=classic;endFill=1;fillColor=#00FFFF;gradientColor=#9933FF;fontColor=#000099;" parent="1" source="iAa0ijknWMUfrmJ30W93-70" edge="1">
          <mxGeometry relative="1" as="geometry">
            <mxPoint x="369" y="908" as="targetPoint" />
            <Array as="points">
              <mxPoint x="141" y="908" />
            </Array>
          </mxGeometry>
        </mxCell>
        <mxCell id="iAa0ijknWMUfrmJ30W93-70" value="&lt;font&gt;firstWordScore()&lt;/font&gt;" style="rounded=1;whiteSpace=wrap;html=1;shadow=1;glass=0;sketch=0;strokeColor=#d6b656;fillColor=#fff2cc;" parent="1" vertex="1">
          <mxGeometry x="67" y="116" width="148" height="45" as="geometry" />
        </mxCell>
        <mxCell id="iAa0ijknWMUfrmJ30W93-81" value="&lt;font color=&quot;#ffe6cc&quot;&gt;wordArray.push({word: &#39;shoe&quot;, score: 135, bonus: &quot;O double letter score&quot;})&lt;/font&gt;" style="rounded=1;whiteSpace=wrap;html=1;shadow=1;glass=0;sketch=0;strokeColor=#000099;fillColor=#004C99;" parent="1" vertex="1">
          <mxGeometry x="634" y="698" width="180" height="59" as="geometry" />
        </mxCell>
        <mxCell id="iAa0ijknWMUfrmJ30W93-84" value="&lt;font&gt;horizontalScore&lt;br&gt;WithBonuses()&lt;/font&gt;" style="rounded=1;whiteSpace=wrap;html=1;shadow=1;glass=0;sketch=0;strokeColor=#ae4132;fillColor=#fad9d5;fontColor=#000099;" parent="1" vertex="1">
          <mxGeometry x="499" y="452" width="97" height="60" as="geometry" />
        </mxCell>
        <mxCell id="iAa0ijknWMUfrmJ30W93-85" value="&lt;font&gt;verticalScore&lt;br&gt;WithBonuses()&lt;/font&gt;" style="rounded=1;whiteSpace=wrap;html=1;shadow=1;glass=0;sketch=0;strokeColor=#ae4132;fillColor=#fad9d5;fontColor=#000099;" parent="1" vertex="1">
          <mxGeometry x="645" y="453" width="97" height="60" as="geometry" />
        </mxCell>
        <mxCell id="iAa0ijknWMUfrmJ30W93-89" value="&lt;font color=&quot;#ffe6cc&quot;&gt;wordArray.push({word: &#39;shoe&quot;, score: 16, bonus: &quot;First word - double word score&quot;})&lt;/font&gt;" style="rounded=1;whiteSpace=wrap;html=1;shadow=1;glass=0;sketch=0;strokeColor=#000099;fillColor=#004C99;" parent="1" vertex="1">
          <mxGeometry x="57" y="183" width="176" height="58" as="geometry" />
        </mxCell>
        <mxCell id="iAa0ijknWMUfrmJ30W93-97" value="&lt;font color=&quot;#ffe6cc&quot;&gt;vertFlag = true&lt;/font&gt;" style="rounded=1;whiteSpace=wrap;html=1;shadow=1;glass=0;sketch=0;strokeColor=#000099;fillColor=#004C99;" parent="1" vertex="1">
          <mxGeometry x="672" y="344" width="97" height="24" as="geometry" />
        </mxCell>
        <mxCell id="iAa0ijknWMUfrmJ30W93-99" value="&lt;font color=&quot;#ffe6cc&quot;&gt;vertFlag = false&lt;/font&gt;" style="rounded=1;whiteSpace=wrap;html=1;shadow=1;glass=0;sketch=0;strokeColor=#000099;fillColor=#004C99;" parent="1" vertex="1">
          <mxGeometry x="473" y="307" width="97" height="24" as="geometry" />
        </mxCell>
        <mxCell id="iAa0ijknWMUfrmJ30W93-100" value="&lt;font color=&quot;#ffe6cc&quot;&gt;vertFlag == true ?&lt;/font&gt;" style="rounded=1;whiteSpace=wrap;html=1;shadow=1;glass=0;sketch=0;strokeColor=#000099;fillColor=#004C99;" parent="1" vertex="1">
          <mxGeometry x="892" y="423" width="114" height="24" as="geometry" />
        </mxCell>
        <mxCell id="iAa0ijknWMUfrmJ30W93-101" style="edgeStyle=orthogonalEdgeStyle;rounded=0;orthogonalLoop=1;jettySize=auto;html=1;exitX=0.5;exitY=1;exitDx=0;exitDy=0;endArrow=classic;endFill=1;fillColor=#00FFFF;gradientColor=#9933FF;fontColor=#000099;" parent="1" source="_AxOFC-AINdAkmEs332U-23" target="_AxOFC-AINdAkmEs332U-23" edge="1">
          <mxGeometry relative="1" as="geometry" />
        </mxCell>
        <mxCell id="iAa0ijknWMUfrmJ30W93-102" style="edgeStyle=orthogonalEdgeStyle;rounded=0;orthogonalLoop=1;jettySize=auto;html=1;exitX=0.5;exitY=1;exitDx=0;exitDy=0;endArrow=classic;endFill=1;fillColor=#00FFFF;gradientColor=#9933FF;fontColor=#000099;" parent="1" source="_AxOFC-AINdAkmEs332U-23" target="_AxOFC-AINdAkmEs332U-23" edge="1">
          <mxGeometry relative="1" as="geometry" />
        </mxCell>
        <mxCell id="cBUCQeLag9bt-TqTQDcO-3" value="firstTurn()" style="text;html=1;resizable=0;autosize=1;align=center;verticalAlign=middle;points=[];fillColor=#f0a30a;strokeColor=#BD7000;rounded=0;fontColor=#FFFF99;fontSize=30;" parent="1" vertex="1">
          <mxGeometry x="-76" y="71" width="139" height="39" as="geometry" />
        </mxCell>
        <mxCell id="cBUCQeLag9bt-TqTQDcO-8" style="edgeStyle=orthogonalEdgeStyle;rounded=0;orthogonalLoop=1;jettySize=auto;html=1;exitX=0.5;exitY=1;exitDx=0;exitDy=0;fontSize=30;fontColor=#FFFF99;" parent="1" source="cBUCQeLag9bt-TqTQDcO-5" target="cBUCQeLag9bt-TqTQDcO-5" edge="1">
          <mxGeometry relative="1" as="geometry" />
        </mxCell>
        <mxCell id="j5gP4k0hpm-259DDC6v4-8" style="edgeStyle=orthogonalEdgeStyle;rounded=0;orthogonalLoop=1;jettySize=auto;html=1;" parent="1" source="a0S-27R4YYvynodJsr7F-2" target="j5gP4k0hpm-259DDC6v4-6" edge="1">
          <mxGeometry relative="1" as="geometry" />
        </mxCell>
        <mxCell id="j5gP4k0hpm-259DDC6v4-15" value="" style="edgeStyle=orthogonalEdgeStyle;rounded=0;orthogonalLoop=1;jettySize=auto;html=1;" parent="1" source="a0S-27R4YYvynodJsr7F-2" target="j5gP4k0hpm-259DDC6v4-6" edge="1">
          <mxGeometry relative="1" as="geometry" />
        </mxCell>
        <mxCell id="j5gP4k0hpm-259DDC6v4-16" value="yes" style="edgeLabel;html=1;align=center;verticalAlign=middle;resizable=0;points=[];" parent="j5gP4k0hpm-259DDC6v4-15" vertex="1" connectable="0">
          <mxGeometry x="-0.7184" y="1" relative="1" as="geometry">
            <mxPoint as="offset" />
          </mxGeometry>
        </mxCell>
        <mxCell id="a0S-27R4YYvynodJsr7F-2" value="all &lt;br&gt;provisonals in &lt;br&gt;same row or column?" style="rhombus;whiteSpace=wrap;html=1;fillColor=#fff2cc;strokeColor=#d6b656;" parent="1" vertex="1">
          <mxGeometry x="275" y="-286" width="110" height="80" as="geometry" />
        </mxCell>
        <mxCell id="a0S-27R4YYvynodJsr7F-3" style="edgeStyle=orthogonalEdgeStyle;rounded=0;orthogonalLoop=1;jettySize=auto;html=1;endArrow=classic;endFill=1;fillColor=#00FFFF;gradientColor=#9933FF;" parent="1" source="iAa0ijknWMUfrmJ30W93-62" edge="1">
          <mxGeometry relative="1" as="geometry">
            <mxPoint x="252" y="-246" as="targetPoint" />
            <mxPoint x="28" y="-247" as="sourcePoint" />
          </mxGeometry>
        </mxCell>
        <mxCell id="j5gP4k0hpm-259DDC6v4-3" value="yes" style="edgeLabel;html=1;align=center;verticalAlign=middle;resizable=0;points=[];" parent="a0S-27R4YYvynodJsr7F-3" vertex="1" connectable="0">
          <mxGeometry x="0.7858" y="-2" relative="1" as="geometry">
            <mxPoint x="-18" y="-3" as="offset" />
          </mxGeometry>
        </mxCell>
        <mxCell id="ICgtY_3QxGC1QZAp6QRd-1" style="edgeStyle=orthogonalEdgeStyle;rounded=0;orthogonalLoop=1;jettySize=auto;html=1;" parent="1" source="a0S-27R4YYvynodJsr7F-4" edge="1">
          <mxGeometry relative="1" as="geometry">
            <mxPoint x="414.25" y="-81.98828125" as="targetPoint" />
          </mxGeometry>
        </mxCell>
        <mxCell id="ICgtY_3QxGC1QZAp6QRd-8" value="yes" style="edgeLabel;html=1;align=center;verticalAlign=middle;resizable=0;points=[];" parent="ICgtY_3QxGC1QZAp6QRd-1" vertex="1" connectable="0">
          <mxGeometry x="-0.6855" y="1" relative="1" as="geometry">
            <mxPoint as="offset" />
          </mxGeometry>
        </mxCell>
        <mxCell id="ICgtY_3QxGC1QZAp6QRd-22" style="edgeStyle=orthogonalEdgeStyle;rounded=0;orthogonalLoop=1;jettySize=auto;html=1;exitX=0.5;exitY=1;exitDx=0;exitDy=0;" parent="1" source="a0S-27R4YYvynodJsr7F-4" edge="1">
          <mxGeometry relative="1" as="geometry">
            <mxPoint x="741.515625" y="1.51171875" as="targetPoint" />
            <Array as="points">
              <mxPoint x="131" y="-82" />
              <mxPoint x="742" y="-82" />
            </Array>
          </mxGeometry>
        </mxCell>
        <mxCell id="ICgtY_3QxGC1QZAp6QRd-23" value="no" style="edgeLabel;html=1;align=center;verticalAlign=middle;resizable=0;points=[];" parent="ICgtY_3QxGC1QZAp6QRd-22" vertex="1" connectable="0">
          <mxGeometry x="-0.8623" y="2" relative="1" as="geometry">
            <mxPoint as="offset" />
          </mxGeometry>
        </mxCell>
        <mxCell id="a0S-27R4YYvynodJsr7F-4" value="first turn&lt;br&gt;of game? &lt;br&gt;!=boardHasLetters" style="rhombus;whiteSpace=wrap;html=1;fillColor=#f8cecc;strokeColor=#b85450;" parent="1" vertex="1">
          <mxGeometry x="81" y="-144.09" width="100" height="50" as="geometry" />
        </mxCell>
        <mxCell id="j5gP4k0hpm-259DDC6v4-1" style="edgeStyle=orthogonalEdgeStyle;rounded=0;orthogonalLoop=1;jettySize=auto;html=1;exitX=0.5;exitY=1;exitDx=0;exitDy=0;" parent="1" source="a0S-27R4YYvynodJsr7F-1" edge="1">
          <mxGeometry relative="1" as="geometry">
            <mxPoint x="129" y="-177" as="targetPoint" />
          </mxGeometry>
        </mxCell>
        <mxCell id="j5gP4k0hpm-259DDC6v4-2" value="no" style="edgeLabel;html=1;align=center;verticalAlign=middle;resizable=0;points=[];" parent="j5gP4k0hpm-259DDC6v4-1" vertex="1" connectable="0">
          <mxGeometry x="-0.2973" relative="1" as="geometry">
            <mxPoint as="offset" />
          </mxGeometry>
        </mxCell>
        <mxCell id="ICgtY_3QxGC1QZAp6QRd-4" style="edgeStyle=orthogonalEdgeStyle;rounded=0;orthogonalLoop=1;jettySize=auto;html=1;" parent="1" source="a0S-27R4YYvynodJsr7F-1" edge="1">
          <mxGeometry relative="1" as="geometry">
            <mxPoint x="129" y="-147.48828125" as="targetPoint" />
          </mxGeometry>
        </mxCell>
        <mxCell id="a0S-27R4YYvynodJsr7F-1" value="more than &lt;br&gt;one letter?" style="rhombus;whiteSpace=wrap;html=1;fillColor=#dae8fc;strokeColor=#6c8ebf;" parent="1" vertex="1">
          <mxGeometry x="74" y="-282" width="110" height="70" as="geometry" />
        </mxCell>
        <mxCell id="j5gP4k0hpm-259DDC6v4-9" style="edgeStyle=orthogonalEdgeStyle;rounded=0;orthogonalLoop=1;jettySize=auto;html=1;entryX=0;entryY=0.5;entryDx=0;entryDy=0;" parent="1" source="j5gP4k0hpm-259DDC6v4-6" target="SoHk7hT5f_enM3RVXxlu-22" edge="1">
          <mxGeometry relative="1" as="geometry" />
        </mxCell>
        <mxCell id="j5gP4k0hpm-259DDC6v4-29" style="edgeStyle=orthogonalEdgeStyle;rounded=0;orthogonalLoop=1;jettySize=auto;html=1;entryX=1;entryY=0.5;entryDx=0;entryDy=0;" parent="1" source="j5gP4k0hpm-259DDC6v4-6" target="SoHk7hT5f_enM3RVXxlu-15" edge="1">
          <mxGeometry relative="1" as="geometry">
            <mxPoint x="526" y="-55" as="targetPoint" />
          </mxGeometry>
        </mxCell>
        <mxCell id="j5gP4k0hpm-259DDC6v4-34" value="yes" style="edgeLabel;html=1;align=center;verticalAlign=middle;resizable=0;points=[];" parent="j5gP4k0hpm-259DDC6v4-29" vertex="1" connectable="0">
          <mxGeometry x="-0.7331" y="-1" relative="1" as="geometry">
            <mxPoint as="offset" />
          </mxGeometry>
        </mxCell>
        <mxCell id="j5gP4k0hpm-259DDC6v4-6" value="any blank &lt;br&gt;tiles between &lt;br&gt;first and last provisional?" style="rhombus;whiteSpace=wrap;html=1;fillColor=#fff2cc;strokeColor=#d6b656;" parent="1" vertex="1">
          <mxGeometry x="461" y="-286" width="110" height="80" as="geometry" />
        </mxCell>
        <mxCell id="j5gP4k0hpm-259DDC6v4-22" value="&amp;gt; 1 letters" style="text;html=1;resizable=0;autosize=1;align=center;verticalAlign=middle;points=[];fillColor=#fff2cc;strokeColor=#d6b656;rounded=0;fontSize=30;" parent="1" vertex="1">
          <mxGeometry x="356" y="-328" width="142" height="40" as="geometry" />
        </mxCell>
        <mxCell id="j5gP4k0hpm-259DDC6v4-23" value="1 letter" style="text;html=1;resizable=0;autosize=1;align=center;verticalAlign=middle;points=[];fillColor=#f8cecc;strokeColor=#b85450;rounded=0;fontSize=30;" parent="1" vertex="1">
          <mxGeometry x="-35" y="-139" width="102" height="40" as="geometry" />
        </mxCell>
        <mxCell id="ICgtY_3QxGC1QZAp6QRd-11" style="edgeStyle=orthogonalEdgeStyle;rounded=0;orthogonalLoop=1;jettySize=auto;html=1;" parent="1" source="SoHk7hT5f_enM3RVXxlu-38" target="SoHk7hT5f_enM3RVXxlu-15" edge="1">
          <mxGeometry relative="1" as="geometry">
            <Array as="points">
              <mxPoint x="426" y="76" />
            </Array>
          </mxGeometry>
        </mxCell>
        <mxCell id="ICgtY_3QxGC1QZAp6QRd-12" value="no" style="edgeLabel;html=1;align=center;verticalAlign=middle;resizable=0;points=[];" parent="ICgtY_3QxGC1QZAp6QRd-11" vertex="1" connectable="0">
          <mxGeometry x="-0.5324" relative="1" as="geometry">
            <mxPoint as="offset" />
          </mxGeometry>
        </mxCell>
        <mxCell id="ICgtY_3QxGC1QZAp6QRd-19" style="edgeStyle=orthogonalEdgeStyle;rounded=0;orthogonalLoop=1;jettySize=auto;html=1;exitX=0.5;exitY=1;exitDx=0;exitDy=0;entryX=0.211;entryY=-0.009;entryDx=0;entryDy=0;entryPerimeter=0;" parent="1" source="ICgtY_3QxGC1QZAp6QRd-16" target="_AxOFC-AINdAkmEs332U-23" edge="1">
          <mxGeometry relative="1" as="geometry" />
        </mxCell>
        <mxCell id="ICgtY_3QxGC1QZAp6QRd-16" value="&lt;font&gt;wordsScore()&lt;/font&gt;" style="rounded=1;whiteSpace=wrap;html=1;shadow=1;glass=0;sketch=0;strokeColor=#d6b656;fillColor=#fff2cc;" parent="1" vertex="1">
          <mxGeometry x="500" y="153" width="148" height="45" as="geometry" />
        </mxCell>
        <mxCell id="ICgtY_3QxGC1QZAp6QRd-24" style="edgeStyle=orthogonalEdgeStyle;rounded=0;orthogonalLoop=1;jettySize=auto;html=1;exitX=0.5;exitY=1;exitDx=0;exitDy=0;" parent="1" source="iAa0ijknWMUfrmJ30W93-99" target="iAa0ijknWMUfrmJ30W93-99" edge="1">
          <mxGeometry relative="1" as="geometry" />
        </mxCell>
      </root>
    </mxGraphModel>
  </diagram>
</mxfile>
